<svg xmlns="http://www.w3.org/2000/svg" width="136" height="136" fill="none" viewBox="0 0 136 136"><g style="mix-blend-mode:multiply"><path stroke="#FF298A" stroke-linecap="round" stroke-linejoin="round" stroke-width="5" d="M69.6667 109.333L92.3333 52.6667L115 109.333"/><path stroke="#FF298A" stroke-width="5" d="M75.3333 92.3333H109.333"/><path stroke="#FF298A" stroke-linecap="round" stroke-width="5" d="M13 30H86.6667"/><path stroke="#FF298A" stroke-linecap="round" stroke-width="5" d="M47 18.6667L52.6667 30"/><path stroke="#FF298A" stroke-linecap="round" stroke-width="5" d="M30 52.6667C30 52.6667 38.5 75.1767 58.3333 81"/><path stroke="#FF298A" stroke-linecap="round" stroke-width="5" d="M18.6667 98.1567C18.6667 98.1567 56.214 75.3333 69.6667 30"/></g><g style="mix-blend-mode:multiply"><path stroke="#FFEA80" stroke-linecap="round" stroke-linejoin="round" stroke-width="5" d="M77.6667 117.333L100.333 60.6667L123 117.333"/><path stroke="#FFEA80" stroke-width="5" d="M83.3333 100.333H117.333"/><path stroke="#FFEA80" stroke-linecap="round" stroke-width="5" d="M21 38H94.6667"/><path stroke="#FFEA80" stroke-linecap="round" stroke-width="5" d="M55 26.6667L60.6667 38"/><path stroke="#FFEA80" stroke-linecap="round" stroke-width="5" d="M38 60.6667C38 60.6667 46.5 83.1767 66.3333 89"/><path stroke="#FFEA80" stroke-linecap="round" stroke-width="5" d="M26.6667 106.157C26.6667 106.157 64.214 83.3333 77.6667 38"/></g></svg>